# xmcd
#
# Track frame offsets:
# 150
# 17431
# 30054
# 46781
# 59210
# 88035
# 102199
# 114976
# 127836
# 140940
# 156607
# 175025
# 186147
# 202488
#
# Disc length: 2896 seconds
#
#
# Revision: 4
# Processed by: cddbd v1.5.2PL0 Copyright (c) Steve Scherf et al.
# Submitted via: FreeRIP 2.942 
#
DISCID=bf0b4e0e
DTITLE=Bruno e Marrone - Acústico
DYEAR=1900
DGENRE=country
TTITLE0=Vida Vazia
TTITLE1=Vivendo de Passado
TTITLE2=Agarrada em mim
TTITLE3=Fio de Cabelo
TTITLE4=Fruto Especial - só sei te amar
TTITLE5=Passou da conta
TTITLE6=Feriado Nacional
TTITLE7=Dormi na praça
TTITLE8=24 horas de amor
TTITLE9=Acorrentado em voce
TTITLE10=Queremos mais
TTITLE11=Favo de mel
TTITLE12=Esta noite eu queria que o mundo acabasse
TTITLE13=Programa de fim de Semana
EXTD=
EXTT0=
EXTT1=
EXTT2=
EXTT3=
EXTT4=
EXTT5=
EXTT6=
EXTT7=
EXTT8=
EXTT9=
EXTT10=
EXTT11=
EXTT12=
EXTT13=Acústico - Bruno e Marrone
PLAYORDER=
